# xmcd CD database file
#
# Track frame offsets:
#	150
#	19306
#	38177
#	48086
#	76016
#	95313
#	114542
#	136174
#	145861
#	170562
#	191165
#	205486
#
# Disc length: 2990 seconds
#
# Revision: 0
# Processed by: cddbd v1.5.1PL2 Copyright (c) Steve Scherf et al.
# Submitted via: CDex 1.51
#
DISCID=9f0bac0c
DTITLE=Andrew MacPhail - Andrew MacPhail
DYEAR=2005
DGENRE=Jazz
TTITLE0=Manahattan
TTITLE1=Birth Of The Blues
TTITLE2=There Ain't Nobdy Here But Us Chickens
TTITLE3=It Might As Well Be Spring
TTITLE4=Lida Rose, Will I Ever Tell You?
TTITLE5=You Came a Long Way From St. Louis
TTITLE6=When The Sun Comes Out
TTITLE7=The Coffee Song
TTITLE8=Spring Can Really Hang You Up The Most
TTITLE9=Makin' Whoopee
TTITLE10=I Love Being Here With You
TTITLE11=Where Is Love?
EXTD=YEAR: 2005
EXTT0=
EXTT1=
EXTT2=
EXTT3=
EXTT4=
EXTT5=
EXTT6=
EXTT7=
EXTT8=
EXTT9=
EXTT10=
EXTT11=
PLAYORDER=
